<svg enable-background="new 0 0 1500 1500" height="1500" viewBox="0 0 1500 1500" width="1500" xmlns="http://www.w3.org/2000/svg"><path d="m257.489 542.347h985.021v506.232c0 14.982-12.145 27.126-27.127 27.126h-930.767c-14.982 0-27.127-12.145-27.127-27.126z" fill="#fff"/><path d="m1215.384 1077.048h-930.768c-15.698 0-28.469-12.771-28.469-28.469v-507.574h987.706v507.574c0 15.698-12.771 28.469-28.469 28.469zm-956.552-533.359v504.891c0 14.218 11.567 25.785 25.784 25.785h930.768c14.217 0 25.784-11.567 25.784-25.785v-504.891z" fill="#231f20"/><path d="m284.616 424.294h930.768c14.982 0 27.127 12.145 27.127 27.127v90.926h-985.022v-90.926c0-14.982 12.145-27.127 27.127-27.127z" fill="#231f20"/><path d="m1243.853 543.689h-987.706v-92.268c0-15.698 12.771-28.469 28.469-28.469h930.768c15.698 0 28.469 12.771 28.469 28.469zm-985.021-2.684h982.336v-89.584c0-14.218-11.567-25.785-25.784-25.785h-930.768c-14.217 0-25.784 11.567-25.784 25.785z" fill="#231f20"/><circle cx="328.455" cy="483.321" fill="#fff" r="18.65"/><path d="m328.455 503.313c-11.024 0-19.992-8.968-19.992-19.992s8.968-19.992 19.992-19.992 19.993 8.968 19.993 19.992-8.969 19.992-19.993 19.992zm0-37.301c-9.543 0-17.308 7.765-17.308 17.309s7.764 17.309 17.308 17.309 17.308-7.765 17.308-17.309-7.764-17.309-17.308-17.309z" fill="#fff"/><circle cx="392.904" cy="483.321" fill="#fff" r="18.65"/><path d="m392.904 503.313c-11.024 0-19.993-8.968-19.993-19.992s8.969-19.992 19.993-19.992 19.993 8.968 19.993 19.992-8.969 19.992-19.993 19.992zm0-37.301c-9.544 0-17.308 7.765-17.308 17.309s7.764 17.309 17.308 17.309 17.308-7.765 17.308-17.309-7.764-17.309-17.308-17.309z" fill="#fff"/><circle cx="457.353" cy="483.321" fill="#fff" r="18.65"/><path d="m457.353 503.313c-11.024 0-19.993-8.968-19.993-19.992s8.969-19.992 19.993-19.992 19.993 8.968 19.993 19.992-8.969 19.992-19.993 19.992zm0-37.301c-9.544 0-17.308 7.765-17.308 17.309s7.764 17.309 17.308 17.309 17.308-7.765 17.308-17.309-7.764-17.309-17.308-17.309z" fill="#fff"/><path d="m1226.224 1074.791c-.741 0-1.342-.601-1.342-1.342v-531.102c0-.741.601-1.342 1.342-1.342s1.342.601 1.342 1.342v531.103c.001.741-.6 1.341-1.342 1.341z" fill="#231f20"/><path d="m1234.368 798.994c-4.497 0-8.143 3.646-8.143 8.143v178.065c0 4.497 3.646 8.143 8.143 8.143 4.497 0 8.143-3.646 8.143-8.143v-178.065c0-4.497-3.646-8.143-8.143-8.143z" fill="#231f20"/><path d="m1234.368 994.687c-5.23 0-9.485-4.255-9.485-9.484v-178.066c0-5.229 4.255-9.484 9.485-9.484s9.485 4.255 9.485 9.484v178.065c0 5.23-4.255 9.485-9.485 9.485zm0-194.351c-3.75 0-6.801 3.051-6.801 6.801v178.065c0 3.75 3.051 6.801 6.801 6.801s6.801-3.051 6.801-6.801v-178.065c-.001-3.75-3.051-6.801-6.801-6.801z" fill="#231f20"/><path d="m218.51 355.852 5.299 13.77 13.77 5.299-13.77 5.299-5.299 13.771-5.304-13.766-13.766-5.304 13.771-5.299z" fill="#231f20"/><path d="m1290.103 1178.812 5.299 13.771 13.771 5.298-13.771 5.299-5.299 13.771-5.304-13.765-13.765-5.305 13.77-5.298z" fill="#231f20"/><path d="m359.289 1187.532 5.299 13.771 13.77 5.299-13.77 5.299-5.299 13.77-5.305-13.765-13.765-5.304 13.771-5.299z" fill="#231f20"/><path d="m1068.385 274.329 5.299 13.77 13.771 5.299-13.771 5.299-5.299 13.771-5.304-13.766-13.765-5.304 13.771-5.299z" fill="#231f20"/><path d="m582.553 726.341h437.384v225.129h-437.384z" fill="#fff"/><path d="m1019.936 952.812h-437.383c-.741 0-1.342-.601-1.342-1.342v-225.129c0-.741.601-1.342 1.342-1.342h437.384c.741 0 1.342.601 1.342 1.342v225.129c0 .741-.601 1.342-1.343 1.342zm-436.041-2.684h434.699v-222.445h-434.699z" fill="#231f20"/><path d="m795.792 720.888h10.905v10.905h-10.905z" fill="#231f20"/><path d="m795.792 946.017h10.905v10.905h-10.905z" fill="#231f20"/><path d="m1014.484 833.452h10.905v10.905h-10.905z" fill="#231f20" transform="matrix(-0 1 -1 -0 1858.8412 -181.0312)"/><path d="m577.1 833.452h10.905v10.905h-10.905z" fill="#231f20" transform="matrix(-0 1 -1 -0 1421.4575 256.3524)"/><path d="m1010.227 716.631h19.42v19.42h-19.42z" fill="#fff"/><path d="m1029.646 737.392h-19.419c-.741 0-1.342-.601-1.342-1.342v-19.419c0-.741.601-1.342 1.342-1.342h19.419c.741 0 1.342.601 1.342 1.342v19.419c0 .741-.601 1.342-1.342 1.342zm-18.077-2.684h16.735v-16.735h-16.735z" fill="#231f20"/><path d="m1010.687 941.76h19.42v19.42h-19.42z" fill="#fff"/><path d="m1030.106 962.521h-19.419c-.741 0-1.342-.601-1.342-1.342v-19.419c0-.741.601-1.342 1.342-1.342h19.419c.741 0 1.342.601 1.342 1.342v19.419c0 .741-.601 1.342-1.342 1.342zm-18.077-2.684h16.735v-16.735h-16.735z" fill="#231f20"/><path d="m572.843 716.631h19.42v19.42h-19.42z" fill="#fff"/><path d="m592.263 737.392h-19.42c-.741 0-1.342-.601-1.342-1.342v-19.419c0-.741.601-1.342 1.342-1.342h19.42c.741 0 1.342.601 1.342 1.342v19.419c0 .741-.601 1.342-1.342 1.342zm-18.078-2.684h16.735v-16.735h-16.735z" fill="#231f20"/><path d="m572.843 941.76h19.42v19.42h-19.42z" fill="#fff"/><path d="m592.263 962.521h-19.42c-.741 0-1.342-.601-1.342-1.342v-19.419c0-.741.601-1.342 1.342-1.342h19.42c.741 0 1.342.601 1.342 1.342v19.419c0 .741-.601 1.342-1.342 1.342zm-18.078-2.684h16.735v-16.735h-16.735z" fill="#231f20"/><path d="m1016.778 963.485c-3.53-9.602 5.803-18.934 15.404-15.404l75.184 27.638 74.737 27.474c9.674 3.556 10.66 16.85 1.615 21.794l-58.215 31.82-31.82 58.215c-4.944 9.045-18.238 8.059-21.794-1.615l-27.474-74.737z" fill="#231f20"/><path d="m653.574 1042.574h-131.137c-2.475 0-4.481 2.006-4.481 4.481v97.17c0 2.475 2.006 4.481 4.481 4.481h131.137c2.475 0 4.481-2.006 4.481-4.481v-97.17c-0-2.475-2.006-4.481-4.481-4.481z" fill="#fff"/><path d="m653.574 1150.049h-131.137c-3.211 0-5.824-2.612-5.824-5.823v-97.171c0-3.211 2.612-5.823 5.824-5.823h131.137c3.211 0 5.824 2.612 5.824 5.823v97.171c-.001 3.211-2.613 5.823-5.824 5.823zm-131.137-106.134c-1.731 0-3.139 1.408-3.139 3.14v97.171c0 1.731 1.408 3.14 3.139 3.14h131.137c1.731 0 3.139-1.408 3.139-3.14v-97.171c0-1.731-1.408-3.14-3.139-3.14z" fill="#231f20"/><path d="m549.062 1073.207h56.845v56.845h-56.845z" fill="#231f20"/><path d="m605.907 1131.395h-56.845c-.741 0-1.342-.601-1.342-1.342v-56.846c0-.741.601-1.342 1.342-1.342h56.845c.741 0 1.342.601 1.342 1.342v56.846c0 .741-.601 1.342-1.342 1.342zm-55.503-2.684h54.161v-54.162h-54.161z" fill="#231f20"/><path d="m537.082 1061.228h56.845v56.845h-56.845z" fill="#fff"/><path d="m593.927 1119.415h-56.845c-.741 0-1.342-.601-1.342-1.342v-56.846c0-.741.601-1.342 1.342-1.342h56.845c.741 0 1.342.601 1.342 1.342v56.846c0 .742-.601 1.342-1.342 1.342zm-55.503-2.683h54.161v-54.162h-54.161z" fill="#231f20"/><path d="m621.357 1061.228h17.571v17.571h-17.571z" fill="#231f20"/><path d="m638.929 1080.141h-17.571c-.741 0-1.342-.601-1.342-1.342v-17.571c0-.741.601-1.342 1.342-1.342h17.571c.741 0 1.342.601 1.342 1.342v17.571c0 .741-.601 1.342-1.342 1.342zm-16.229-2.684h14.887v-14.888h-14.887z" fill="#231f20"/><path d="m621.357 1086.854h17.571v17.571h-17.571z" fill="#231f20"/><path d="m638.929 1105.768h-17.571c-.741 0-1.342-.601-1.342-1.342v-17.571c0-.741.601-1.342 1.342-1.342h17.571c.741 0 1.342.601 1.342 1.342v17.571c0 .741-.601 1.342-1.342 1.342zm-16.229-2.684h14.887v-14.888h-14.887z" fill="#231f20"/><path d="m621.357 1112.481h17.571v17.571h-17.571z" fill="#231f20"/><path d="m638.929 1131.395h-17.571c-.741 0-1.342-.601-1.342-1.342v-17.571c0-.741.601-1.342 1.342-1.342h17.571c.741 0 1.342.601 1.342 1.342v17.571c0 .741-.601 1.342-1.342 1.342zm-16.229-2.684h14.887v-14.888h-14.887z" fill="#231f20"/><path d="m178.038 813.046h49.931c2.475 0 4.481 2.006 4.481 4.481v295.431c0 2.475-2.006 4.481-4.481 4.481h-49.931c-2.475 0-4.481-2.006-4.481-4.481v-295.431c-0-2.475 2.006-4.481 4.481-4.481z" fill="#fff"/><path d="m227.969 1118.781h-49.931c-3.211 0-5.824-2.612-5.824-5.823v-295.431c0-3.211 2.613-5.823 5.824-5.823h49.931c3.211 0 5.824 2.612 5.824 5.823v295.431c0 3.211-2.613 5.823-5.824 5.823zm-49.931-304.393c-1.731 0-3.139 1.408-3.139 3.14v295.431c0 1.731 1.408 3.14 3.139 3.14h49.931c1.731 0 3.139-1.408 3.139-3.14v-295.432c0-1.731-1.408-3.14-3.139-3.14h-49.931z" fill="#231f20"/><path d="m188.679 826.601h29.831v29.831h-29.831z" fill="#fff"/><path d="m218.51 857.774h-29.831c-.741 0-1.342-.601-1.342-1.342v-29.831c0-.741.601-1.342 1.342-1.342h29.831c.741 0 1.342.601 1.342 1.342v29.831c0 .741-.601 1.342-1.342 1.342zm-28.489-2.684h27.146v-27.147h-27.146z" fill="#231f20"/><path d="m188.679 867.525h29.831v29.831h-29.831z" fill="#231f20"/><path d="m218.51 898.697h-29.831c-.741 0-1.342-.601-1.342-1.342v-29.83c0-.741.601-1.342 1.342-1.342h29.831c.741 0 1.342.601 1.342 1.342v29.83c0 .742-.601 1.342-1.342 1.342zm-28.489-2.683h27.146v-27.146h-27.146z" fill="#231f20"/><path d="m188.679 908.449h29.831v29.831h-29.831z" fill="#fff"/><path d="m218.51 939.622h-29.831c-.741 0-1.342-.601-1.342-1.342v-29.831c0-.741.601-1.342 1.342-1.342h29.831c.741 0 1.342.601 1.342 1.342v29.831c0 .742-.601 1.342-1.342 1.342zm-28.489-2.683h27.146v-27.147h-27.146z" fill="#231f20"/><path d="m188.679 949.374h29.831v29.831h-29.831z" fill="#231f20"/><path d="m218.51 980.547h-29.831c-.741 0-1.342-.601-1.342-1.342v-29.831c0-.741.601-1.342 1.342-1.342h29.831c.741 0 1.342.601 1.342 1.342v29.831c0 .741-.601 1.342-1.342 1.342zm-28.489-2.684h27.146v-27.147h-27.146z" fill="#231f20"/><path d="m188.679 990.298h29.831v29.831h-29.831z" fill="#231f20"/><path d="m218.51 1021.471h-29.831c-.741 0-1.342-.601-1.342-1.342v-29.831c0-.741.601-1.342 1.342-1.342h29.831c.741 0 1.342.601 1.342 1.342v29.831c0 .741-.601 1.342-1.342 1.342zm-28.489-2.684h27.146v-27.147h-27.146z" fill="#231f20"/><path d="m188.679 1031.223h29.831v29.831h-29.831z" fill="#fff"/><path d="m218.51 1062.396h-29.831c-.741 0-1.342-.601-1.342-1.342v-29.831c0-.741.601-1.342 1.342-1.342h29.831c.741 0 1.342.601 1.342 1.342v29.831c0 .741-.601 1.342-1.342 1.342zm-28.489-2.684h27.146v-27.147h-27.146z" fill="#231f20"/><path d="m188.679 1072.147h29.831v29.831h-29.831z" fill="#231f20"/><path d="m218.51 1103.32h-29.831c-.741 0-1.342-.601-1.342-1.342v-29.831c0-.741.601-1.342 1.342-1.342h29.831c.741 0 1.342.601 1.342 1.342v29.831c0 .742-.601 1.342-1.342 1.342zm-28.489-2.683h27.146v-27.147h-27.146z" fill="#231f20"/><path d="m1326.443 466.466v187.191c0 2.475-2.006 4.481-4.481 4.481h-220.224c-2.475 0-4.481-2.006-4.481-4.481v-187.191c0-2.475 2.006-4.481 4.481-4.481h220.224c2.475 0 4.481 2.006 4.481 4.481z" fill="#fff"/><path d="m1321.962 659.481h-220.224c-3.211 0-5.824-2.612-5.824-5.823v-187.192c0-3.211 2.612-5.823 5.824-5.823h220.224c3.211 0 5.824 2.612 5.824 5.823v187.191c0 3.211-2.613 5.824-5.824 5.824zm-220.224-196.155c-1.731 0-3.139 1.408-3.139 3.14v187.191c0 1.731 1.408 3.14 3.139 3.14h220.224c1.731 0 3.139-1.408 3.139-3.14v-187.191c0-1.731-1.408-3.14-3.139-3.14z" fill="#231f20"/><path d="m1212.831 542.443h29.831v170.394h-29.831z" fill="#fff" transform="matrix(-0 1 -1 -0 1855.3862 -600.1058)"/><path d="m1312.943 643.898h-170.394c-.741 0-1.342-.601-1.342-1.342v-29.831c0-.741.601-1.342 1.342-1.342h170.394c.741 0 1.342.601 1.342 1.342v29.831c0 .741-.601 1.342-1.342 1.342zm-169.052-2.684h167.709v-27.147h-167.709z" fill="#231f20"/><circle cx="1295.825" cy="627.05" fill="#fff" r="5.721"/><path d="m1295.825 634.112c-3.895 0-7.063-3.168-7.063-7.062 0-3.896 3.168-7.063 7.063-7.063s7.063 3.168 7.063 7.063c-0 3.894-3.168 7.062-7.063 7.062zm0-11.442c-2.415 0-4.379 1.965-4.379 4.38 0 2.414 1.964 4.379 4.379 4.379s4.379-1.965 4.379-4.379c-.001-2.415-1.965-4.38-4.379-4.38z" fill="#231f20"/><path d="m1112.718 612.725h29.831v29.831h-29.831z" fill="#231f20" transform="matrix(-0 1 -1 -0 1755.2738 -499.9934)"/><path d="m1142.549 643.898h-29.831c-.741 0-1.342-.601-1.342-1.342v-29.831c0-.741.601-1.342 1.342-1.342h29.831c.741 0 1.342.601 1.342 1.342v29.831c0 .741-.601 1.342-1.342 1.342zm-28.489-2.684h27.146v-27.147h-27.146z" fill="#231f20"/><path d="m1212.831 497.491h29.831v170.394h-29.831z" fill="#fff" transform="matrix(-0 1 -1 -0 1810.4335 -645.0585)"/><path d="m1312.943 598.944h-170.394c-.741 0-1.342-.601-1.342-1.342v-29.831c0-.741.601-1.342 1.342-1.342h170.394c.741 0 1.342.601 1.342 1.342v29.831c0 .742-.601 1.342-1.342 1.342zm-169.052-2.683h167.709v-27.147h-167.709z" fill="#231f20"/><circle cx="1295.825" cy="582.097" fill="#fff" r="5.721"/><path d="m1295.825 589.16c-3.895 0-7.063-3.168-7.063-7.063s3.168-7.062 7.063-7.062 7.063 3.168 7.063 7.062c-0 3.895-3.168 7.063-7.063 7.063zm0-11.442c-2.415 0-4.379 1.965-4.379 4.379 0 2.415 1.964 4.38 4.379 4.38s4.379-1.965 4.379-4.38c-.001-2.414-1.965-4.379-4.379-4.379z" fill="#231f20"/><path d="m1112.718 567.772h29.831v29.831h-29.831z" fill="#231f20" transform="matrix(-0 1 -1 -0 1710.321 -544.9462)"/><path d="m1142.549 598.944h-29.831c-.741 0-1.342-.601-1.342-1.342v-29.831c0-.741.601-1.342 1.342-1.342h29.831c.741 0 1.342.601 1.342 1.342v29.831c0 .742-.601 1.342-1.342 1.342zm-28.489-2.683h27.146v-27.147h-27.146z" fill="#231f20"/><path d="m1212.831 452.538h29.831v170.394h-29.831z" fill="#fff" transform="matrix(-0 1 -1 -0 1765.4807 -690.0113)"/><path d="m1312.943 553.992h-170.394c-.741 0-1.342-.601-1.342-1.342v-29.831c0-.741.601-1.342 1.342-1.342h170.394c.741 0 1.342.601 1.342 1.342v29.831c0 .742-.601 1.342-1.342 1.342zm-169.052-2.683h167.709v-27.147h-167.709z" fill="#231f20"/><circle cx="1295.825" cy="537.144" fill="#fff" r="5.721"/><path d="m1295.825 544.207c-3.895 0-7.063-3.168-7.063-7.062 0-3.896 3.168-7.063 7.063-7.063s7.063 3.168 7.063 7.063c-0 3.894-3.168 7.062-7.063 7.062zm0-11.442c-2.415 0-4.379 1.965-4.379 4.38 0 2.414 1.964 4.379 4.379 4.379s4.379-1.965 4.379-4.379c-.001-2.415-1.965-4.38-4.379-4.38z" fill="#231f20"/><path d="m1112.718 522.819h29.831v29.831h-29.831z" fill="#231f20" transform="matrix(-0 1 -1 -0 1665.3684 -589.8989)"/><path d="m1142.549 553.992h-29.831c-.741 0-1.342-.601-1.342-1.342v-29.831c0-.741.601-1.342 1.342-1.342h29.831c.741 0 1.342.601 1.342 1.342v29.831c0 .742-.601 1.342-1.342 1.342zm-28.489-2.683h27.146v-27.147h-27.146z" fill="#231f20"/><path d="m1212.831 407.585h29.831v170.394h-29.831z" fill="#fff" transform="matrix(-0 1 -1 -0 1720.528 -734.964)"/><path d="m1312.943 509.039h-170.394c-.741 0-1.342-.601-1.342-1.342v-29.831c0-.741.601-1.342 1.342-1.342h170.394c.741 0 1.342.601 1.342 1.342v29.831c0 .742-.601 1.342-1.342 1.342zm-169.052-2.683h167.709v-27.147h-167.709z" fill="#231f20"/><circle cx="1295.825" cy="492.192" fill="#fff" r="5.721"/><path d="m1295.825 499.255c-3.895 0-7.063-3.168-7.063-7.063s3.168-7.062 7.063-7.062 7.063 3.168 7.063 7.062c-0 3.895-3.168 7.063-7.063 7.063zm0-11.442c-2.415 0-4.379 1.965-4.379 4.379 0 2.415 1.964 4.38 4.379 4.38s4.379-1.965 4.379-4.38c-.001-2.415-1.965-4.379-4.379-4.379z" fill="#231f20"/><path d="m1112.718 477.866h29.831v29.831h-29.831z" fill="#231f20" transform="matrix(-0 1 -1 -0 1620.4156 -634.8516)"/><path d="m1142.549 509.039h-29.831c-.741 0-1.342-.601-1.342-1.342v-29.831c0-.741.601-1.342 1.342-1.342h29.831c.741 0 1.342.601 1.342 1.342v29.831c0 .742-.601 1.342-1.342 1.342zm-28.489-2.683h27.146v-27.147h-27.146z" fill="#231f20"/><path d="m674.481 312.468h189.779c2.184 0 3.954 1.77 3.954 3.954v189.778c0 2.184-1.77 3.954-3.954 3.954h-189.779c-2.184 0-3.954-1.77-3.954-3.954v-189.779c0-2.183 1.771-3.953 3.954-3.953z" fill="#fff"/><path d="m864.26 511.495h-189.779c-2.92 0-5.296-2.375-5.296-5.295v-189.779c0-2.92 2.376-5.295 5.296-5.295h189.779c2.92 0 5.296 2.375 5.296 5.295v189.779c-.001 2.92-2.376 5.295-5.296 5.295zm-189.779-197.685c-1.44 0-2.612 1.172-2.612 2.611v189.779c0 1.439 1.171 2.611 2.612 2.611h189.779c1.44 0 2.611-1.172 2.611-2.611v-189.779c0-1.439-1.171-2.611-2.611-2.611z" fill="#231f20"/><path d="m856.267 497.632h-173.794c-.741 0-1.342-.601-1.342-1.342v-169.959c0-.741.601-1.342 1.342-1.342h173.794c.741 0 1.342.601 1.342 1.342v169.959c.001.741-.6 1.342-1.342 1.342zm-172.451-2.684h171.109v-167.275h-171.109z" fill="#231f20"/><path d="m788.559 431.418h-38.378c-.741 0-1.342-.601-1.342-1.342v-37.531c0-.741.601-1.342 1.342-1.342h38.378c.741 0 1.342.601 1.342 1.342v37.531c.001.742-.6 1.342-1.342 1.342zm-37.035-2.684h35.693v-34.848h-35.693z" fill="#231f20"/><path d="m823.546 465.633h-108.352c-.741 0-1.342-.601-1.342-1.342v-105.961c0-.741.601-1.342 1.342-1.342h108.352c.741 0 1.342.601 1.342 1.342v105.961c0 .741-.601 1.342-1.342 1.342zm-107.01-2.684h105.667v-103.277h-105.667z" fill="#231f20"/><path d="m682.473 497.632c-.349 0-.697-.135-.959-.403-.519-.53-.509-1.38.021-1.898l67.708-66.214c.53-.518 1.38-.508 1.898.021.519.53.509 1.38-.021 1.898l-67.708 66.214c-.261.255-.6.382-.939.382z" fill="#231f20"/><path d="m750.181 393.887c-.338 0-.677-.127-.938-.382l-67.708-66.214c-.53-.519-.54-1.368-.021-1.898.518-.529 1.368-.539 1.898-.021l67.708 66.214c.53.519.54 1.368.021 1.898-.263.268-.611.403-.96.403z" fill="#231f20"/><path d="m788.559 393.887c-.349 0-.697-.135-.959-.403-.519-.53-.509-1.38.021-1.898l67.708-66.214c.53-.518 1.38-.508 1.898.021.519.53.509 1.38-.021 1.898l-67.708 66.214c-.261.255-.6.382-.939.382z" fill="#231f20"/><path d="m856.267 497.632c-.338 0-.677-.127-.938-.382l-67.708-66.214c-.53-.519-.54-1.368-.021-1.898.518-.529 1.368-.539 1.898-.021l67.708 66.214c.53.519.54 1.368.021 1.898-.263.268-.611.403-.96.403z" fill="#231f20"/><path d="m297.472 578.717h186.516c1.995 0 3.613 1.617 3.613 3.613v193.9c0 1.995-1.617 3.613-3.613 3.613h-186.516c-1.995 0-3.613-1.617-3.613-3.613v-193.9c0-1.996 1.618-3.613 3.613-3.613z" fill="#fff"/><g fill="#231f20"><path d="m483.988 781.184h-186.516c-2.732 0-4.955-2.222-4.955-4.954v-193.9c0-2.732 2.223-4.954 4.955-4.954h186.516c2.732 0 4.955 2.222 4.955 4.954v193.9c0 2.732-2.222 4.954-4.955 4.954zm-186.516-201.125c-1.252 0-2.27 1.019-2.27 2.271v193.9c0 1.252 1.018 2.271 2.27 2.271h186.516c1.252 0 2.271-1.019 2.271-2.271v-193.9c0-1.252-1.019-2.271-2.271-2.271z"/><path d="m328.073 767.669h-19.94c-1.16 0-2.1-.94-2.1-2.1v-18.775c0-1.16.94-2.1 2.1-2.1h19.94c1.16 0 2.1.94 2.1 2.1v18.775c0 1.16-.94 2.1-2.1 2.1z"/><path d="m328.073 769.011h-19.94c-1.898 0-3.442-1.544-3.442-3.442v-18.774c0-1.898 1.544-3.442 3.442-3.442h19.94c1.898 0 3.442 1.544 3.442 3.442v18.774c0 1.898-1.544 3.442-3.442 3.442zm-19.94-22.976c-.418 0-.758.341-.758.759v18.774c0 .418.34.759.758.759h19.94c.418 0 .758-.341.758-.759v-18.774c0-.418-.34-.759-.758-.759z"/><path d="m364.387 767.669h-19.94c-1.16 0-2.1-.94-2.1-2.1v-18.775c0-1.16.94-2.1 2.1-2.1h19.94c1.16 0 2.1.94 2.1 2.1v18.775c0 1.16-.94 2.1-2.1 2.1z"/><path d="m364.387 769.011h-19.94c-1.898 0-3.442-1.544-3.442-3.442v-18.774c0-1.898 1.544-3.442 3.442-3.442h19.94c1.898 0 3.442 1.544 3.442 3.442v18.774c0 1.898-1.544 3.442-3.442 3.442zm-19.94-22.976c-.418 0-.758.341-.758.759v18.774c0 .418.34.759.758.759h19.94c.418 0 .758-.341.758-.759v-18.774c0-.418-.34-.759-.758-.759z"/><path d="m400.7 767.669h-19.94c-1.16 0-2.1-.94-2.1-2.1v-18.775c0-1.16.94-2.1 2.1-2.1h19.94c1.16 0 2.1.94 2.1 2.1v18.775c0 1.16-.94 2.1-2.1 2.1z"/><path d="m400.701 769.011h-19.94c-1.898 0-3.442-1.544-3.442-3.442v-18.774c0-1.898 1.544-3.442 3.442-3.442h19.94c1.898 0 3.442 1.544 3.442 3.442v18.774c-.001 1.898-1.545 3.442-3.442 3.442zm-19.941-22.976c-.418 0-.758.341-.758.759v18.774c0 .418.34.759.758.759h19.94c.417 0 .757-.341.757-.759v-18.774c0-.418-.34-.759-.757-.759z"/><path d="m437.014 767.669h-19.94c-1.16 0-2.1-.94-2.1-2.1v-18.775c0-1.16.94-2.1 2.1-2.1h19.94c1.16 0 2.1.94 2.1 2.1v18.775c-0 1.16-.94 2.1-2.1 2.1z"/><path d="m437.014 769.011h-19.94c-1.898 0-3.442-1.544-3.442-3.442v-18.774c0-1.898 1.544-3.442 3.442-3.442h19.94c1.898 0 3.442 1.544 3.442 3.442v18.774c0 1.898-1.544 3.442-3.442 3.442zm-19.94-22.976c-.417 0-.757.341-.757.759v18.774c0 .418.34.759.757.759h19.94c.418 0 .758-.341.758-.759v-18.774c0-.418-.34-.759-.758-.759z"/><path d="m473.328 767.669h-19.94c-1.16 0-2.1-.94-2.1-2.1v-18.775c0-1.16.94-2.1 2.1-2.1h19.94c1.16 0 2.1.94 2.1 2.1v18.775c0 1.16-.941 2.1-2.1 2.1z"/><path d="m473.327 769.011h-19.94c-1.898 0-3.442-1.544-3.442-3.442v-18.774c0-1.898 1.544-3.442 3.442-3.442h19.94c1.898 0 3.442 1.544 3.442 3.442v18.774c.001 1.898-1.544 3.442-3.442 3.442zm-19.939-22.976c-.418 0-.758.341-.758.759v18.774c0 .418.34.759.758.759h19.94c.418 0 .758-.341.758-.759v-18.774c0-.418-.34-.759-.758-.759z"/><path d="m475.428 728.102h-169.395c-.741 0-1.342-.601-1.342-1.342s.601-1.342 1.342-1.342h169.395c.741 0 1.342.601 1.342 1.342s-.601 1.342-1.342 1.342z"/><path d="m475.428 714.916h-169.395c-.741 0-1.342-.601-1.342-1.342s.601-1.342 1.342-1.342h169.395c.741 0 1.342.601 1.342 1.342s-.601 1.342-1.342 1.342z"/><path d="m427.044 719.49c-.741 0-1.342-.601-1.342-1.342v-9.149c0-.741.601-1.342 1.342-1.342s1.342.601 1.342 1.342v9.149c0 .742-.601 1.342-1.342 1.342z"/><path d="m354.417 732.676c-.741 0-1.342-.601-1.342-1.342v-9.149c0-.741.601-1.342 1.342-1.342s1.342.601 1.342 1.342v9.149c0 .741-.601 1.342-1.342 1.342z"/></g><path d="m474.639 591.322h-167.206c-.773 0-1.4.627-1.4 1.4v101.801c0 .773.627 1.4 1.4 1.4h167.206c.773 0 1.4-.627 1.4-1.4v-101.801c0-.773-.627-1.4-1.4-1.4z" fill="#fff"/><path d="m474.639 697.265h-167.206c-1.512 0-2.742-1.229-2.742-2.741v-101.802c0-1.512 1.23-2.741 2.742-2.741h167.206c1.512 0 2.742 1.229 2.742 2.741v101.802c-0 1.511-1.23 2.741-2.742 2.741zm-167.206-104.601-.058 101.859 167.264.058.058-101.859-.058-.058z" fill="#231f20"/></svg>
